<svg id="Layer_1" data-name="Layer 1" xmlns="http://www.w3.org/2000/svg" viewBox="0 0 1080 1080"><defs><style>.cls-1{fill:#134e8a;}</style></defs><path class="cls-1" d="M280.08,538.69A262.11,262.11,0,0,0,390.35,752.11L435,707.47a201.34,201.34,0,0,1-34.41-27.6,199.66,199.66,0,0,1,0-282.33L520.14,278A261.65,261.65,0,0,0,280.08,538.69Z"/><path class="cls-1" d="M389.25,538.72A152.5,152.5,0,0,0,469.46,673l46.29-46.3a91.69,91.69,0,0,1-38.89-152.81L650.2,300.52a260.09,260.09,0,0,0-65.93-20L433.92,430.91A151.6,151.6,0,0,0,389.25,538.72Z"/><path class="cls-1" d="M559.86,802A261.66,261.66,0,0,0,689.65,327.89l-44.6,44.64a199.75,199.75,0,0,1,34.41,309.93Z"/><path class="cls-1" d="M429.8,779.48a260.09,260.09,0,0,0,65.93,20L646.08,649.09A152.47,152.47,0,0,0,610.54,407l-46.29,46.3a91.69,91.69,0,0,1,38.89,152.81Z"/></svg>